<svg xmlns="http://www.w3.org/2000/svg" xmlns:xlink="http://www.w3.org/1999/xlink" width="365" zoomAndPan="magnify" viewBox="0 0 273.75 67.499998" height="90" preserveAspectRatio="xMidYMid meet" version="1.0"><defs><g/><clipPath id="8b94ad1fa9"><path d="M 21 10.34375 L 68 10.34375 L 68 57 L 21 57 Z M 21 10.34375 " clip-rule="nonzero"/></clipPath><clipPath id="751321dfd5"><path d="M 10.910156 10.347656 L 241.699219 9.140625 L 242 66.464844 L 11.210938 67.671875 Z M 10.910156 10.347656 " clip-rule="nonzero"/></clipPath><clipPath id="6a98a7fe99"><path d="M 10.910156 10.347656 L 241.699219 9.140625 L 242 66.464844 L 11.210938 67.671875 Z M 10.910156 10.347656 " clip-rule="nonzero"/></clipPath><clipPath id="25b3dd37af"><path d="M 11.695312 17 L 44 17 L 44 29 L 11.695312 29 Z M 11.695312 17 " clip-rule="nonzero"/></clipPath><clipPath id="a8442115ce"><path d="M 10.910156 10.347656 L 241.699219 9.140625 L 242 66.464844 L 11.210938 67.671875 Z M 10.910156 10.347656 " clip-rule="nonzero"/></clipPath><clipPath id="fd8a335b36"><path d="M 10.910156 10.347656 L 241.699219 9.140625 L 242 66.464844 L 11.210938 67.671875 Z M 10.910156 10.347656 " clip-rule="nonzero"/></clipPath><clipPath id="584e50ab6b"><path d="M 20 23 L 51 23 L 51 41 L 20 41 Z M 20 23 " clip-rule="nonzero"/></clipPath><clipPath id="32e45ae355"><path d="M 10.910156 10.347656 L 241.699219 9.140625 L 242 66.464844 L 11.210938 67.671875 Z M 10.910156 10.347656 " clip-rule="nonzero"/></clipPath><clipPath id="ba5b3a33db"><path d="M 10.910156 10.347656 L 241.699219 9.140625 L 242 66.464844 L 11.210938 67.671875 Z M 10.910156 10.347656 " clip-rule="nonzero"/></clipPath><clipPath id="875608fc69"><path d="M 24 30 L 54 30 L 54 50 L 24 50 Z M 24 30 " clip-rule="nonzero"/></clipPath><clipPath id="df67704960"><path d="M 10.910156 10.347656 L 241.699219 9.140625 L 242 66.464844 L 11.210938 67.671875 Z M 10.910156 10.347656 " clip-rule="nonzero"/></clipPath><clipPath id="c96c963ccf"><path d="M 10.910156 10.347656 L 241.699219 9.140625 L 242 66.464844 L 11.210938 67.671875 Z M 10.910156 10.347656 " clip-rule="nonzero"/></clipPath></defs><g clip-path="url(#8b94ad1fa9)"><g clip-path="url(#751321dfd5)"><g clip-path="url(#6a98a7fe99)"><path fill="#d8e3ff" d="M 67.941406 33.296875 C 67.945312 34.058594 67.914062 34.820312 67.84375 35.578125 C 67.773438 36.335938 67.667969 37.089844 67.523438 37.835938 C 67.378906 38.582031 67.199219 39.320312 66.984375 40.050781 C 66.769531 40.78125 66.519531 41.5 66.230469 42.203125 C 65.945312 42.910156 65.628906 43.597656 65.273438 44.269531 C 64.921875 44.945312 64.539062 45.597656 64.121094 46.234375 C 63.703125 46.871094 63.257812 47.484375 62.78125 48.074219 C 62.304688 48.664062 61.800781 49.230469 61.269531 49.773438 C 60.738281 50.3125 60.179688 50.828125 59.597656 51.3125 C 59.015625 51.800781 58.414062 52.253906 57.789062 52.683594 C 57.160156 53.109375 56.515625 53.503906 55.851562 53.863281 C 55.1875 54.226562 54.503906 54.554688 53.808594 54.851562 C 53.113281 55.144531 52.402344 55.40625 51.679688 55.628906 C 50.957031 55.855469 50.226562 56.042969 49.488281 56.195312 C 48.746094 56.347656 48 56.464844 47.246094 56.542969 C 46.496094 56.621094 45.742188 56.664062 44.988281 56.667969 C 44.230469 56.671875 43.476562 56.636719 42.722656 56.566406 C 41.972656 56.496094 41.222656 56.386719 40.480469 56.242188 C 39.738281 56.097656 39.007812 55.917969 38.28125 55.699219 C 37.558594 55.484375 36.84375 55.230469 36.144531 54.945312 C 35.445312 54.65625 34.761719 54.335938 34.09375 53.980469 C 33.425781 53.625 32.777344 53.234375 32.144531 52.816406 C 31.515625 52.394531 30.90625 51.945312 30.320312 51.464844 C 29.730469 50.988281 29.167969 50.480469 28.632812 49.941406 C 28.09375 49.40625 27.585938 48.847656 27.101562 48.261719 C 26.621094 47.675781 26.167969 47.066406 25.742188 46.433594 C 25.320312 45.804688 24.929688 45.152344 24.570312 44.484375 C 24.210938 43.816406 23.882812 43.128906 23.589844 42.425781 C 23.296875 41.726562 23.039062 41.011719 22.816406 40.28125 C 22.59375 39.554688 22.40625 38.820312 22.253906 38.074219 C 22.101562 37.328125 21.988281 36.574219 21.910156 35.816406 C 21.832031 35.058594 21.792969 34.300781 21.789062 33.539062 C 21.785156 32.777344 21.816406 32.019531 21.886719 31.261719 C 21.957031 30.503906 22.0625 29.75 22.207031 29 C 22.351562 28.253906 22.53125 27.515625 22.746094 26.785156 C 22.960938 26.054688 23.210938 25.339844 23.496094 24.632812 C 23.78125 23.929688 24.101562 23.238281 24.453125 22.566406 C 24.808594 21.894531 25.191406 21.238281 25.609375 20.601562 C 26.027344 19.96875 26.472656 19.355469 26.949219 18.761719 C 27.425781 18.171875 27.929688 17.605469 28.460938 17.066406 C 28.992188 16.523438 29.546875 16.011719 30.128906 15.523438 C 30.710938 15.039062 31.316406 14.582031 31.941406 14.15625 C 32.570312 13.730469 33.214844 13.335938 33.878906 12.972656 C 34.542969 12.609375 35.222656 12.28125 35.921875 11.984375 C 36.617188 11.691406 37.328125 11.429688 38.050781 11.207031 C 38.769531 10.980469 39.503906 10.792969 40.242188 10.640625 C 40.984375 10.488281 41.730469 10.371094 42.480469 10.292969 C 43.234375 10.214844 43.988281 10.175781 44.742188 10.171875 C 45.5 10.167969 46.253906 10.199219 47.003906 10.269531 C 47.757812 10.339844 48.503906 10.449219 49.246094 10.59375 C 49.988281 10.738281 50.722656 10.917969 51.449219 11.136719 C 52.171875 11.351562 52.882812 11.605469 53.582031 11.894531 C 54.285156 12.179688 54.96875 12.503906 55.636719 12.859375 C 56.304688 13.214844 56.953125 13.601562 57.585938 14.019531 C 58.214844 14.441406 58.824219 14.890625 59.410156 15.371094 C 59.996094 15.851562 60.558594 16.359375 61.097656 16.894531 C 61.632812 17.429688 62.144531 17.992188 62.625 18.578125 C 63.109375 19.164062 63.5625 19.769531 63.984375 20.402344 C 64.410156 21.03125 64.800781 21.683594 65.160156 22.351562 C 65.519531 23.023438 65.847656 23.707031 66.140625 24.410156 C 66.433594 25.113281 66.691406 25.828125 66.914062 26.554688 C 67.136719 27.28125 67.324219 28.019531 67.476562 28.765625 C 67.625 29.511719 67.742188 30.261719 67.820312 31.019531 C 67.898438 31.777344 67.9375 32.535156 67.941406 33.296875 Z M 67.941406 33.296875 " fill-opacity="1" fill-rule="nonzero"/></g></g></g><g clip-path="url(#25b3dd37af)"><g clip-path="url(#a8442115ce)"><g clip-path="url(#fd8a335b36)"><path fill="#504b8e" d="M 13.128906 18.007812 C 14.519531 18.121094 15.941406 18.460938 17.242188 19.339844 C 17.546875 19.597656 17.890625 19.792969 18.171875 20.105469 C 18.457031 20.410156 18.765625 20.710938 19.007812 21.046875 C 19.234375 21.339844 19.453125 21.636719 19.664062 21.941406 C 23.125 22.164062 26.582031 22.613281 30.007812 23.390625 C 32.390625 23.917969 34.75 24.640625 37.082031 25.5 C 39.136719 26.3125 41.175781 27.296875 43.085938 28.664062 C 37.285156 22.335938 31.066406 20.09375 28.117188 19.082031 C 21.699219 16.882812 15.976562 17.183594 11.839844 17.996094 C 12.265625 17.976562 12.699219 17.984375 13.128906 18.007812 Z M 13.128906 18.007812 " fill-opacity="1" fill-rule="nonzero"/></g></g></g><g clip-path="url(#584e50ab6b)"><g clip-path="url(#32e45ae355)"><g clip-path="url(#ba5b3a33db)"><path fill="#504b8e" d="M 29.734375 25.429688 C 27.402344 24.867188 25.042969 24.480469 22.679688 24.152344 C 22.105469 24.070312 21.535156 23.988281 20.964844 23.925781 C 21.65625 25.039062 22.304688 26.21875 22.902344 27.429688 C 23.019531 27.675781 23.140625 27.929688 23.261719 28.183594 C 26.347656 28.394531 29.433594 28.808594 32.5 29.476562 L 34.253906 29.921875 L 35.128906 30.15625 L 35.996094 30.433594 L 37.726562 30.996094 C 38.304688 31.214844 38.875 31.445312 39.445312 31.679688 C 41.71875 32.628906 43.960938 33.824219 46.019531 35.476562 C 47.707031 36.8125 49.304688 38.460938 50.550781 40.5 C 49.824219 38.785156 48.957031 37.019531 47.917969 35.257812 C 46.566406 33.367188 44.960938 31.84375 43.222656 30.632812 C 41.164062 29.222656 38.945312 28.179688 36.667969 27.390625 C 34.390625 26.613281 32.074219 25.914062 29.734375 25.429688 Z M 29.734375 25.429688 " fill-opacity="1" fill-rule="nonzero"/></g></g></g><g clip-path="url(#875608fc69)"><g clip-path="url(#df67704960)"><g clip-path="url(#c96c963ccf)"><path fill="#504b8e" d="M 45.40625 36.882812 C 43.378906 35.480469 41.226562 34.367188 38.996094 33.558594 L 37.332031 32.929688 L 35.640625 32.40625 L 34.789062 32.148438 L 32.222656 31.515625 C 29.925781 31.007812 27.617188 30.585938 25.292969 30.308594 C 24.910156 30.25 24.527344 30.199219 24.140625 30.15625 C 24.414062 30.777344 24.6875 31.3125 25.023438 31.796875 C 25.855469 32.976562 26.910156 33.871094 28.097656 34.4375 C 28.6875 34.730469 29.300781 34.929688 29.945312 35.113281 L 31.945312 35.664062 L 39.929688 37.984375 L 43.90625 39.191406 C 45.292969 39.699219 46.597656 40.519531 47.765625 41.566406 C 50.03125 43.59375 51.796875 46.324219 53.238281 49.25 C 52.699219 46.78125 51.855469 44.457031 50.6875 42.476562 C 49.300781 40.09375 47.410156 38.3125 45.40625 36.882812 Z M 45.40625 36.882812 " fill-opacity="1" fill-rule="nonzero"/></g></g></g><g fill="#504b8e" fill-opacity="1"><g transform="translate(70.929511, 39.085475)"><g><path d="M 5.75 -7.890625 C 6.863281 -7.890625 7.765625 -7.519531 8.453125 -6.78125 C 9.148438 -6.039062 9.5 -5.078125 9.5 -3.890625 C 9.5 -2.710938 9.160156 -1.757812 8.484375 -1.03125 C 7.804688 -0.300781 6.90625 0.0625 5.78125 0.0625 C 4.53125 0.0625 3.609375 -0.410156 3.015625 -1.359375 L 3.015625 0 L 1.328125 0 L 1.328125 -10.921875 L 3.015625 -10.921875 L 3.015625 -6.46875 C 3.609375 -7.414062 4.519531 -7.890625 5.75 -7.890625 Z M 3.6875 -2.09375 C 4.132812 -1.625 4.707031 -1.390625 5.40625 -1.390625 C 6.101562 -1.390625 6.671875 -1.625 7.109375 -2.09375 C 7.554688 -2.570312 7.78125 -3.1875 7.78125 -3.9375 C 7.78125 -4.675781 7.554688 -5.28125 7.109375 -5.75 C 6.671875 -6.226562 6.101562 -6.46875 5.40625 -6.46875 C 4.707031 -6.46875 4.132812 -6.226562 3.6875 -5.75 C 3.238281 -5.28125 3.015625 -4.675781 3.015625 -3.9375 C 3.015625 -3.1875 3.238281 -2.570312 3.6875 -2.09375 Z M 3.6875 -2.09375 "/></g></g></g><g fill="#504b8e" fill-opacity="1"><g transform="translate(80.928011, 39.085475)"><g><path d="M 8.359375 -7.828125 L 8.359375 0 L 6.671875 0 L 6.671875 -1.53125 C 6.160156 -0.488281 5.226562 0.0390625 3.875 0.0625 C 2.976562 0.0625 2.273438 -0.207031 1.765625 -0.75 C 1.253906 -1.289062 1 -2.023438 1 -2.953125 L 1 -7.828125 L 2.6875 -7.828125 L 2.6875 -3.421875 C 2.6875 -2.835938 2.847656 -2.375 3.171875 -2.03125 C 3.503906 -1.695312 3.953125 -1.53125 4.515625 -1.53125 C 5.171875 -1.539062 5.691406 -1.773438 6.078125 -2.234375 C 6.472656 -2.691406 6.671875 -3.269531 6.671875 -3.96875 L 6.671875 -7.828125 Z M 8.359375 -7.828125 "/></g></g></g><g fill="#504b8e" fill-opacity="1"><g transform="translate(90.529503, 39.085475)"><g><path d="M 8.3125 -7.828125 L 8.3125 -0.765625 C 8.3125 0.347656 7.941406 1.238281 7.203125 1.90625 C 6.472656 2.570312 5.488281 2.90625 4.25 2.90625 C 3.09375 2.90625 2.007812 2.5625 1 1.875 L 1.71875 0.640625 C 2.488281 1.210938 3.3125 1.5 4.1875 1.5 C 4.925781 1.5 5.519531 1.296875 5.96875 0.890625 C 6.414062 0.492188 6.640625 -0.0390625 6.640625 -0.71875 L 6.640625 -1.703125 C 6.085938 -0.816406 5.222656 -0.375 4.046875 -0.375 C 2.984375 -0.375 2.128906 -0.722656 1.484375 -1.421875 C 0.835938 -2.117188 0.515625 -3.035156 0.515625 -4.171875 C 0.515625 -5.273438 0.832031 -6.164062 1.46875 -6.84375 C 2.101562 -7.53125 2.941406 -7.878906 3.984375 -7.890625 C 5.179688 -7.898438 6.066406 -7.457031 6.640625 -6.5625 L 6.640625 -7.828125 Z M 4.390625 -1.703125 C 5.046875 -1.703125 5.582031 -1.925781 6 -2.375 C 6.425781 -2.832031 6.640625 -3.414062 6.640625 -4.125 C 6.640625 -4.832031 6.429688 -5.40625 6.015625 -5.84375 C 5.597656 -6.289062 5.054688 -6.515625 4.390625 -6.515625 C 3.722656 -6.515625 3.175781 -6.289062 2.75 -5.84375 C 2.332031 -5.40625 2.117188 -4.832031 2.109375 -4.125 C 2.117188 -3.414062 2.332031 -2.832031 2.75 -2.375 C 3.164062 -1.925781 3.710938 -1.703125 4.390625 -1.703125 Z M 4.390625 -1.703125 "/></g></g></g><g fill="#504b8e" fill-opacity="1"><g transform="translate(99.939853, 39.085475)"><g><path d="M 8.359375 -7.828125 L 8.359375 0 L 6.671875 0 L 6.671875 -1.53125 C 6.160156 -0.488281 5.226562 0.0390625 3.875 0.0625 C 2.976562 0.0625 2.273438 -0.207031 1.765625 -0.75 C 1.253906 -1.289062 1 -2.023438 1 -2.953125 L 1 -7.828125 L 2.6875 -7.828125 L 2.6875 -3.421875 C 2.6875 -2.835938 2.847656 -2.375 3.171875 -2.03125 C 3.503906 -1.695312 3.953125 -1.53125 4.515625 -1.53125 C 5.171875 -1.539062 5.691406 -1.773438 6.078125 -2.234375 C 6.472656 -2.691406 6.671875 -3.269531 6.671875 -3.96875 L 6.671875 -7.828125 Z M 8.359375 -7.828125 "/></g></g></g><g fill="#504b8e" fill-opacity="1"><g transform="translate(109.541345, 39.085475)"><g><path d="M 5.828125 -7.890625 C 6.742188 -7.890625 7.457031 -7.617188 7.96875 -7.078125 C 8.488281 -6.546875 8.75 -5.8125 8.75 -4.875 L 8.75 0 L 7.046875 0 L 7.046875 -4.40625 C 7.046875 -4.988281 6.878906 -5.445312 6.546875 -5.78125 C 6.210938 -6.125 5.753906 -6.296875 5.171875 -6.296875 C 4.535156 -6.285156 4.019531 -6.082031 3.625 -5.6875 C 3.226562 -5.300781 3 -4.796875 2.9375 -4.171875 L 2.9375 0 L 1.25 0 L 1.25 -7.828125 L 2.9375 -7.828125 L 2.9375 -6.328125 C 3.46875 -7.367188 4.429688 -7.890625 5.828125 -7.890625 Z M 5.828125 -7.890625 "/></g></g></g><g fill="#504b8e" fill-opacity="1"><g transform="translate(119.28988, 39.085475)"><g><path d="M 5.828125 -7.890625 C 6.742188 -7.890625 7.457031 -7.617188 7.96875 -7.078125 C 8.488281 -6.546875 8.75 -5.8125 8.75 -4.875 L 8.75 0 L 7.046875 0 L 7.046875 -4.40625 C 7.046875 -4.988281 6.878906 -5.445312 6.546875 -5.78125 C 6.210938 -6.125 5.753906 -6.296875 5.171875 -6.296875 C 4.535156 -6.285156 4.019531 -6.082031 3.625 -5.6875 C 3.226562 -5.300781 3 -4.796875 2.9375 -4.171875 L 2.9375 0 L 1.25 0 L 1.25 -7.828125 L 2.9375 -7.828125 L 2.9375 -6.328125 C 3.46875 -7.367188 4.429688 -7.890625 5.828125 -7.890625 Z M 5.828125 -7.890625 "/></g></g></g><g fill="#504b8e" fill-opacity="1"><g transform="translate(129.038415, 39.085475)"><g><path d="M 4.46875 -7.890625 C 5.8125 -7.890625 6.785156 -7.484375 7.390625 -6.671875 C 7.992188 -5.859375 8.242188 -4.722656 8.140625 -3.265625 L 2.21875 -3.265625 C 2.351562 -2.660156 2.632812 -2.179688 3.0625 -1.828125 C 3.5 -1.484375 4.03125 -1.3125 4.65625 -1.3125 C 5.53125 -1.3125 6.265625 -1.613281 6.859375 -2.21875 L 7.75 -1.265625 C 6.945312 -0.378906 5.867188 0.0625 4.515625 0.0625 C 3.304688 0.0625 2.335938 -0.300781 1.609375 -1.03125 C 0.878906 -1.769531 0.515625 -2.726562 0.515625 -3.90625 C 0.515625 -5.082031 0.878906 -6.035156 1.609375 -6.765625 C 2.347656 -7.503906 3.300781 -7.878906 4.46875 -7.890625 Z M 2.1875 -4.5 L 6.671875 -4.5 C 6.640625 -5.132812 6.425781 -5.628906 6.03125 -5.984375 C 5.644531 -6.347656 5.128906 -6.53125 4.484375 -6.53125 C 3.867188 -6.53125 3.359375 -6.347656 2.953125 -5.984375 C 2.546875 -5.628906 2.289062 -5.132812 2.1875 -4.5 Z M 2.1875 -4.5 "/></g></g></g><g fill="#504b8e" fill-opacity="1"><g transform="translate(137.684173, 39.085475)"><g><path d="M 2.9375 -7.828125 L 2.9375 -6.265625 C 3.476562 -7.347656 4.382812 -7.890625 5.65625 -7.890625 L 5.65625 -6.265625 C 4.875 -6.304688 4.242188 -6.125 3.765625 -5.71875 C 3.285156 -5.320312 3.007812 -4.78125 2.9375 -4.09375 L 2.9375 0 L 1.25 0 L 1.25 -7.828125 Z M 2.9375 -7.828125 "/></g></g></g><g fill="#504b8e" fill-opacity="1"><g transform="translate(143.477414, 39.085475)"><g><path d="M 4.46875 -7.890625 C 5.8125 -7.890625 6.785156 -7.484375 7.390625 -6.671875 C 7.992188 -5.859375 8.242188 -4.722656 8.140625 -3.265625 L 2.21875 -3.265625 C 2.351562 -2.660156 2.632812 -2.179688 3.0625 -1.828125 C 3.5 -1.484375 4.03125 -1.3125 4.65625 -1.3125 C 5.53125 -1.3125 6.265625 -1.613281 6.859375 -2.21875 L 7.75 -1.265625 C 6.945312 -0.378906 5.867188 0.0625 4.515625 0.0625 C 3.304688 0.0625 2.335938 -0.300781 1.609375 -1.03125 C 0.878906 -1.769531 0.515625 -2.726562 0.515625 -3.90625 C 0.515625 -5.082031 0.878906 -6.035156 1.609375 -6.765625 C 2.347656 -7.503906 3.300781 -7.878906 4.46875 -7.890625 Z M 2.1875 -4.5 L 6.671875 -4.5 C 6.640625 -5.132812 6.425781 -5.628906 6.03125 -5.984375 C 5.644531 -6.347656 5.128906 -6.53125 4.484375 -6.53125 C 3.867188 -6.53125 3.359375 -6.347656 2.953125 -5.984375 C 2.546875 -5.628906 2.289062 -5.132812 2.1875 -4.5 Z M 2.1875 -4.5 "/></g></g></g><g fill="#504b8e" fill-opacity="1"><g transform="translate(151.828949, 39.085475)"><g><path d="M 7.890625 -7.828125 L 4.328125 1.078125 C 3.847656 2.304688 3 2.921875 1.78125 2.921875 C 1.101562 2.921875 0.5 2.703125 -0.03125 2.265625 L 0.6875 0.953125 C 1.039062 1.210938 1.378906 1.34375 1.703125 1.34375 C 2.234375 1.34375 2.632812 1.050781 2.90625 0.46875 L 3.171875 -0.125 L -0.078125 -7.828125 L 1.671875 -7.828125 L 4.015625 -1.90625 L 6.203125 -7.828125 Z M 7.890625 -7.828125 "/></g></g></g><g fill="#504b8e" fill-opacity="1"><g transform="translate(159.342382, 39.085475)"><g><path d="M 4.46875 -7.890625 C 5.8125 -7.890625 6.785156 -7.484375 7.390625 -6.671875 C 7.992188 -5.859375 8.242188 -4.722656 8.140625 -3.265625 L 2.21875 -3.265625 C 2.351562 -2.660156 2.632812 -2.179688 3.0625 -1.828125 C 3.5 -1.484375 4.03125 -1.3125 4.65625 -1.3125 C 5.53125 -1.3125 6.265625 -1.613281 6.859375 -2.21875 L 7.75 -1.265625 C 6.945312 -0.378906 5.867188 0.0625 4.515625 0.0625 C 3.304688 0.0625 2.335938 -0.300781 1.609375 -1.03125 C 0.878906 -1.769531 0.515625 -2.726562 0.515625 -3.90625 C 0.515625 -5.082031 0.878906 -6.035156 1.609375 -6.765625 C 2.347656 -7.503906 3.300781 -7.878906 4.46875 -7.890625 Z M 2.1875 -4.5 L 6.671875 -4.5 C 6.640625 -5.132812 6.425781 -5.628906 6.03125 -5.984375 C 5.644531 -6.347656 5.128906 -6.53125 4.484375 -6.53125 C 3.867188 -6.53125 3.359375 -6.347656 2.953125 -5.984375 C 2.546875 -5.628906 2.289062 -5.132812 2.1875 -4.5 Z M 2.1875 -4.5 "/></g></g></g><g fill="#504b8e" fill-opacity="1"><g transform="translate(167.988139, 39.085475)"><g><path d="M 8.3125 -7.828125 L 8.3125 -0.765625 C 8.3125 0.347656 7.941406 1.238281 7.203125 1.90625 C 6.472656 2.570312 5.488281 2.90625 4.25 2.90625 C 3.09375 2.90625 2.007812 2.5625 1 1.875 L 1.71875 0.640625 C 2.488281 1.210938 3.3125 1.5 4.1875 1.5 C 4.925781 1.5 5.519531 1.296875 5.96875 0.890625 C 6.414062 0.492188 6.640625 -0.0390625 6.640625 -0.71875 L 6.640625 -1.703125 C 6.085938 -0.816406 5.222656 -0.375 4.046875 -0.375 C 2.984375 -0.375 2.128906 -0.722656 1.484375 -1.421875 C 0.835938 -2.117188 0.515625 -3.035156 0.515625 -4.171875 C 0.515625 -5.273438 0.832031 -6.164062 1.46875 -6.84375 C 2.101562 -7.53125 2.941406 -7.878906 3.984375 -7.890625 C 5.179688 -7.898438 6.066406 -7.457031 6.640625 -6.5625 L 6.640625 -7.828125 Z M 4.390625 -1.703125 C 5.046875 -1.703125 5.582031 -1.925781 6 -2.375 C 6.425781 -2.832031 6.640625 -3.414062 6.640625 -4.125 C 6.640625 -4.832031 6.429688 -5.40625 6.015625 -5.84375 C 5.597656 -6.289062 5.054688 -6.515625 4.390625 -6.515625 C 3.722656 -6.515625 3.175781 -6.289062 2.75 -5.84375 C 2.332031 -5.40625 2.117188 -4.832031 2.109375 -4.125 C 2.117188 -3.414062 2.332031 -2.832031 2.75 -2.375 C 3.164062 -1.925781 3.710938 -1.703125 4.390625 -1.703125 Z M 4.390625 -1.703125 "/></g></g></g><g fill="#504b8e" fill-opacity="1"><g transform="translate(177.398489, 39.085475)"><g><path d="M 1.375 -10.8125 C 1.5625 -11 1.796875 -11.09375 2.078125 -11.09375 C 2.367188 -11.09375 2.609375 -11 2.796875 -10.8125 C 2.984375 -10.625 3.078125 -10.375 3.078125 -10.0625 C 3.078125 -9.769531 2.984375 -9.523438 2.796875 -9.328125 C 2.609375 -9.140625 2.367188 -9.046875 2.078125 -9.046875 C 1.796875 -9.046875 1.5625 -9.140625 1.375 -9.328125 C 1.195312 -9.523438 1.109375 -9.769531 1.109375 -10.0625 C 1.109375 -10.375 1.195312 -10.625 1.375 -10.8125 Z M 2.921875 0 L 1.25 0 L 1.25 -7.828125 L 2.921875 -7.828125 Z M 2.921875 0 "/></g></g></g><g fill="#504b8e" fill-opacity="1"><g transform="translate(181.574336, 39.085475)"><g><path d="M 5.25 -1.796875 L 5.6875 -0.5 C 5.03125 -0.113281 4.382812 0.078125 3.75 0.078125 C 3.113281 0.078125 2.585938 -0.113281 2.171875 -0.5 C 1.765625 -0.882812 1.5625 -1.453125 1.5625 -2.203125 L 1.5625 -6.265625 L 0.453125 -6.265625 L 0.453125 -7.53125 L 1.5625 -7.53125 L 1.5625 -9.6875 L 3.234375 -9.6875 L 3.234375 -7.53125 L 5.546875 -7.53125 L 5.546875 -6.265625 L 3.234375 -6.265625 L 3.234375 -2.515625 C 3.234375 -2.117188 3.300781 -1.84375 3.4375 -1.6875 C 3.582031 -1.53125 3.796875 -1.453125 4.078125 -1.453125 C 4.390625 -1.453125 4.78125 -1.566406 5.25 -1.796875 Z M 5.25 -1.796875 "/></g></g></g><g fill="#504b8e" fill-opacity="1"><g transform="translate(187.558731, 39.085475)"><g><path d="M 3.59375 -7.90625 C 4.664062 -7.90625 5.578125 -7.640625 6.328125 -7.109375 L 5.703125 -5.859375 C 4.960938 -6.316406 4.210938 -6.546875 3.453125 -6.546875 C 2.691406 -6.546875 2.3125 -6.285156 2.3125 -5.765625 C 2.3125 -5.515625 2.453125 -5.304688 2.734375 -5.140625 C 3.023438 -4.972656 3.375 -4.832031 3.78125 -4.71875 C 4.1875 -4.601562 4.59375 -4.46875 5 -4.3125 C 5.40625 -4.164062 5.75 -3.921875 6.03125 -3.578125 C 6.320312 -3.234375 6.46875 -2.796875 6.46875 -2.265625 C 6.46875 -1.515625 6.175781 -0.9375 5.59375 -0.53125 C 5.019531 -0.132812 4.304688 0.0625 3.453125 0.0625 C 2.867188 0.0625 2.296875 -0.03125 1.734375 -0.21875 C 1.171875 -0.414062 0.695312 -0.6875 0.3125 -1.03125 L 0.90625 -2.234375 C 1.238281 -1.941406 1.648438 -1.707031 2.140625 -1.53125 C 2.628906 -1.351562 3.09375 -1.265625 3.53125 -1.265625 C 3.914062 -1.265625 4.222656 -1.332031 4.453125 -1.46875 C 4.691406 -1.601562 4.8125 -1.816406 4.8125 -2.109375 C 4.8125 -2.398438 4.664062 -2.632812 4.375 -2.8125 C 4.09375 -2.988281 3.75 -3.128906 3.34375 -3.234375 C 2.945312 -3.347656 2.546875 -3.476562 2.140625 -3.625 C 1.742188 -3.769531 1.40625 -4.007812 1.125 -4.34375 C 0.84375 -4.6875 0.703125 -5.117188 0.703125 -5.640625 C 0.703125 -6.378906 0.976562 -6.941406 1.53125 -7.328125 C 2.09375 -7.710938 2.78125 -7.90625 3.59375 -7.90625 Z M 3.59375 -7.90625 "/></g></g></g><g fill="#504b8e" fill-opacity="1"><g transform="translate(194.469462, 39.085475)"><g><path d="M 4.46875 -7.890625 C 5.8125 -7.890625 6.785156 -7.484375 7.390625 -6.671875 C 7.992188 -5.859375 8.242188 -4.722656 8.140625 -3.265625 L 2.21875 -3.265625 C 2.351562 -2.660156 2.632812 -2.179688 3.0625 -1.828125 C 3.5 -1.484375 4.03125 -1.3125 4.65625 -1.3125 C 5.53125 -1.3125 6.265625 -1.613281 6.859375 -2.21875 L 7.75 -1.265625 C 6.945312 -0.378906 5.867188 0.0625 4.515625 0.0625 C 3.304688 0.0625 2.335938 -0.300781 1.609375 -1.03125 C 0.878906 -1.769531 0.515625 -2.726562 0.515625 -3.90625 C 0.515625 -5.082031 0.878906 -6.035156 1.609375 -6.765625 C 2.347656 -7.503906 3.300781 -7.878906 4.46875 -7.890625 Z M 2.1875 -4.5 L 6.671875 -4.5 C 6.640625 -5.132812 6.425781 -5.628906 6.03125 -5.984375 C 5.644531 -6.347656 5.128906 -6.53125 4.484375 -6.53125 C 3.867188 -6.53125 3.359375 -6.347656 2.953125 -5.984375 C 2.546875 -5.628906 2.289062 -5.132812 2.1875 -4.5 Z M 2.1875 -4.5 "/></g></g></g><g fill="#504b8e" fill-opacity="1"><g transform="translate(203.115219, 39.085475)"><g><path d="M 4.34375 -3.59375 L 3.015625 -2.1875 L 3.015625 0 L 1.328125 0 L 1.328125 -10.921875 L 3.015625 -10.921875 L 3.015625 -4.328125 L 6.46875 -7.828125 L 8.421875 -7.828125 L 5.515625 -4.796875 L 8.640625 0 L 6.640625 0 Z M 4.34375 -3.59375 "/></g></g></g><g fill="#504b8e" fill-opacity="1"><g transform="translate(211.863909, 39.085475)"><g><path d="M 0.9375 -1.53125 C 1.113281 -1.71875 1.332031 -1.8125 1.59375 -1.8125 C 1.863281 -1.8125 2.085938 -1.71875 2.265625 -1.53125 C 2.441406 -1.351562 2.53125 -1.128906 2.53125 -0.859375 C 2.53125 -0.566406 2.441406 -0.328125 2.265625 -0.140625 C 2.085938 0.0351562 1.863281 0.125 1.59375 0.125 C 1.332031 0.125 1.113281 0.0351562 0.9375 -0.140625 C 0.757812 -0.328125 0.671875 -0.566406 0.671875 -0.859375 C 0.671875 -1.128906 0.757812 -1.351562 0.9375 -1.53125 Z M 0.9375 -1.53125 "/></g></g></g><g fill="#504b8e" fill-opacity="1"><g transform="translate(215.06931, 39.085475)"><g><path d="M 4.453125 -7.890625 C 5.867188 -7.890625 6.953125 -7.460938 7.703125 -6.609375 L 6.765625 -5.515625 C 6.179688 -6.117188 5.4375 -6.414062 4.53125 -6.40625 C 3.851562 -6.40625 3.296875 -6.171875 2.859375 -5.703125 C 2.421875 -5.234375 2.203125 -4.628906 2.203125 -3.890625 C 2.203125 -3.160156 2.421875 -2.5625 2.859375 -2.09375 C 3.296875 -1.625 3.851562 -1.390625 4.53125 -1.390625 C 5.53125 -1.390625 6.300781 -1.707031 6.84375 -2.34375 L 7.78125 -1.390625 C 7.050781 -0.421875 5.941406 0.0625 4.453125 0.0625 C 3.285156 0.0625 2.335938 -0.300781 1.609375 -1.03125 C 0.878906 -1.769531 0.515625 -2.726562 0.515625 -3.90625 C 0.515625 -5.09375 0.878906 -6.050781 1.609375 -6.78125 C 2.335938 -7.519531 3.285156 -7.890625 4.453125 -7.890625 Z M 4.453125 -7.890625 "/></g></g></g><g fill="#504b8e" fill-opacity="1"><g transform="translate(223.053249, 39.085475)"><g><path d="M 4.609375 -7.890625 C 5.816406 -7.890625 6.796875 -7.523438 7.546875 -6.796875 C 8.304688 -6.066406 8.6875 -5.109375 8.6875 -3.921875 C 8.6875 -2.742188 8.304688 -1.785156 7.546875 -1.046875 C 6.796875 -0.304688 5.816406 0.0625 4.609375 0.0625 C 3.390625 0.0625 2.398438 -0.304688 1.640625 -1.046875 C 0.890625 -1.785156 0.515625 -2.742188 0.515625 -3.921875 C 0.515625 -5.109375 0.890625 -6.066406 1.640625 -6.796875 C 2.398438 -7.523438 3.390625 -7.890625 4.609375 -7.890625 Z M 4.609375 -6.4375 C 3.898438 -6.4375 3.320312 -6.195312 2.875 -5.71875 C 2.425781 -5.25 2.203125 -4.644531 2.203125 -3.90625 C 2.203125 -3.144531 2.425781 -2.53125 2.875 -2.0625 C 3.320312 -1.59375 3.898438 -1.359375 4.609375 -1.359375 C 5.316406 -1.359375 5.890625 -1.59375 6.328125 -2.0625 C 6.765625 -2.53125 6.984375 -3.144531 6.984375 -3.90625 C 6.984375 -4.644531 6.757812 -5.25 6.3125 -5.71875 C 5.875 -6.195312 5.304688 -6.4375 4.609375 -6.4375 Z M 4.609375 -6.4375 "/></g></g></g><g fill="#504b8e" fill-opacity="1"><g transform="translate(232.243045, 39.085475)"><g><path d="M 11.46875 -7.890625 C 12.363281 -7.890625 13.066406 -7.617188 13.578125 -7.078125 C 14.085938 -6.535156 14.34375 -5.800781 14.34375 -4.875 L 14.34375 0 L 12.640625 0 L 12.640625 -4.40625 C 12.640625 -5 12.472656 -5.460938 12.140625 -5.796875 C 11.816406 -6.140625 11.363281 -6.3125 10.78125 -6.3125 C 10.125 -6.289062 9.601562 -6.050781 9.21875 -5.59375 C 8.832031 -5.144531 8.640625 -4.570312 8.640625 -3.875 L 8.640625 0 L 6.953125 0 L 6.953125 -4.40625 C 6.953125 -5 6.785156 -5.460938 6.453125 -5.796875 C 6.128906 -6.140625 5.679688 -6.3125 5.109375 -6.3125 C 4.441406 -6.289062 3.910156 -6.050781 3.515625 -5.59375 C 3.117188 -5.144531 2.921875 -4.570312 2.921875 -3.875 L 2.921875 0 L 1.25 0 L 1.25 -7.828125 L 2.921875 -7.828125 L 2.921875 -6.3125 C 3.441406 -7.363281 4.390625 -7.890625 5.765625 -7.890625 C 6.460938 -7.890625 7.046875 -7.722656 7.515625 -7.390625 C 7.984375 -7.066406 8.3125 -6.601562 8.5 -6 C 8.976562 -7.257812 9.96875 -7.890625 11.46875 -7.890625 Z M 11.46875 -7.890625 "/></g></g></g></svg>